Coordinates
version=1
nRows=18
nColumns=28
inDegrees=yes

Units are S.I. units (second, meters, Newtons, ...)
Angles are in degrees.

endheader
time	pelvis_tilt	pelvis_list	pelvis_rotation	pelvis_tx	pelvis_ty	pelvis_tz	hip_flexion_r	hip_adduction_r	hip_rotation_r	knee_angle_r	ankle_angle_r	subtalar_angle_r	mtp_angle_r	hip_flexion_l	hip_adduction_l	hip_rotation_l	knee_angle_l	socket_flexion	socket_adduction	socket_rotation	socket_tx	socket_ty	socket_tz	foot_flex	lumbar_extension	lumbar_bending	lumbar_rotation
      0.00000000	      0.28296108	    -10.72376130	    -12.72487269	     -0.85962787	      0.98835911	      0.33639466	    -23.39819679	     10.03720600	     15.04126887	     -9.70468123	      7.68222140	    -12.58865978	     20.67832334	     27.60334805	    -15.26692969	      5.96818097	    -12.80835704	     -4.37350984	     -1.23783633	      3.42092884	      0.00000000	      0.00055356	      0.00000000	      2.47140183	    -13.82327096	      7.34440748	     20.43200809
      0.00416667	      0.19735707	    -10.81891089	    -12.73278025	     -0.85445435	      0.98762699	      0.33578036	    -23.46445636	     10.05913244	     15.06037908	     -9.96057766	      7.51372397	    -12.58351052	     20.67503873	     27.42819554	    -15.29063675	      5.91940477	    -12.76476200	     -4.39610757	     -1.29683074	      3.46521316	      0.00000000	      0.00013189	      0.00000000	      2.21447108	    -13.70206545	      7.48571683	     20.43425040
      0.00833333	      0.11853370	    -10.87534929	    -12.67806234	     -0.84901839	      0.98685511	      0.33516526	    -23.56902887	     10.06958715	     15.10486452	    -10.17264698	      7.43902280	    -12.57506285	     20.67531307	     27.27229229	    -15.24472822	      5.89770182	    -12.76642807	     -4.42063340	     -1.34713241	      3.48541632	      0.00000000	     -0.00018322	      0.00000000	      2.12178064	    -13.54655380	      7.57442106	     20.43711818
      0.01250000	     -0.00543562	    -11.05500972	    -12.78779343	     -0.84347868	      0.98608587	      0.33462420	    -23.51524972	     10.15110305	     15.06792782	    -10.65688177	      7.02858595	    -12.54814927	     20.68975133	     27.02460997	    -15.42123825	      5.68258803	    -12.57061287	     -4.37854442	     -1.40284281	      3.70693812	      0.00000000	     -0.00095755	      0.00000000	      1.67730513	    -13.44128498	      7.82193319	     20.44766599
      0.01666667	     -0.08501363	    -11.10299257	    -12.73173784	     -0.83764577	      0.98527914	      0.33397270	    -23.62544061	     10.14624436	     15.12954578	    -10.87811041	      6.95871430	    -12.53538942	     20.69676240	     26.85251781	    -15.36166272	      5.66740690	    -12.58379028	     -4.39172822	     -1.45285529	      3.74141286	      0.00000000	     -0.00138626	      0.00000000	      1.59348269	    -13.26436698	      7.90523906	     20.45448109
      0.02083333	     -0.09998644	    -11.17337782	    -13.15198911	     -0.83162568	      0.98492144	      0.33399785	    -23.68714408	      9.96938000	     15.37308146	    -11.37748186	      6.26732941	    -12.60676352	     21.86947980	     26.20089826	    -15.60325228	      4.67566005	    -12.04387326	     -4.17172892	     -1.55133828	      4.35104257	      0.00000000	     -0.00233785	      0.00000000	      1.19084471	    -13.23142667	      7.91120063	     20.97483372
      0.02500000	     -0.17832926	    -11.21581445	    -13.08030026	     -0.82550823	      0.98411568	      0.33326308	    -23.78921914	      9.95527902	     15.43508456	    -11.62494067	      6.18730645	    -12.59390553	     21.87125899	     26.01394434	    -15.52385726	      4.69661105	    -12.07250751	     -4.20426357	     -1.59616590	      4.39069310	      0.00000000	     -0.00287350	      0.00000000	      1.07917419	    -13.04518145	      7.99325147	     20.96084747
      0.02916667	     -0.33955333	    -11.32551954	    -13.17316801	     -0.81940816	      0.98333889	      0.33270187	    -23.64369135	      9.98366554	     15.34205242	    -12.20681862	      5.61882236	    -12.53099611	     21.94895320	     25.79342074	    -15.62099143	      4.46834133	    -11.91959327	     -4.15358392	     -1.65659771	      4.65737464	      0.00000000	     -0.00368813	      0.00000000	      0.66597900	    -12.85394724	      8.17816075	     20.84542713
      0.03333333	     -0.44149645	    -11.35556050	    -13.17893277	     -0.81315720	      0.98260134	      0.33204578	    -23.64030426	      9.94009938	     15.36054192	    -12.60340568	      5.35904390	    -12.50572992	     22.01295136	     25.57262035	    -15.57730119	      4.38202087	    -11.88942115	     -4.17096003	     -1.68777824	      4.78699072	      0.00000000	     -0.00440125	      0.00000000	      0.33630310	    -12.65949625	      8.26049680	     20.82841019
      0.03750000	     -0.51121786	    -11.38158363	    -13.09046080	     -0.80675303	      0.98187071	      0.33129120	    -23.73110345	      9.91430883	     15.44455324	    -12.88374015	      5.26302106	    -12.48763761	     22.01967181	     25.36251351	    -15.47924406	      4.40525430	    -11.93148906	     -4.19296203	     -1.71510731	      4.84582220	      0.00000000	     -0.00507807	      0.00000000	      0.24750697	    -12.45412554	      8.33007839	     20.82392569
      0.04166667	     -0.61193304	    -11.41035352	    -13.15520352	     -0.80063969	      0.98129958	      0.33069505	    -23.56883425	      9.87340063	     15.38038846	    -13.55517473	      4.69928439	    -12.45085674	     22.03676398	     25.11395947	    -15.46666027	      4.25603782	    -11.86284056	     -4.18517513	     -1.74173652	      5.05108245	      0.00000000	     -0.00585088	      0.00000000	     -0.26903862	    -12.32801895	      8.38339426	     20.76000670
      0.04583333	     -0.67595741	    -11.42917273	    -13.06639052	     -0.79406441	      0.98061317	      0.32992271	    -23.65504272	      9.83343558	     15.46229790	    -13.84579431	      4.58929698	    -12.43177427	     22.04462640	     24.89182722	    -15.36532990	      4.27115388	    -11.91883112	     -4.19408275	     -1.75501714	      5.11149157	      0.00000000	     -0.00668380	      0.00000000	     -0.32362458	    -12.10060574	      8.45109783	     20.75398889
      0.05000000	     -0.78032538	    -11.38873967	    -13.16771121	     -0.78787185	      0.98013178	      0.32940260	    -23.40175968	      9.71931525	     15.35353928	    -14.63828740	      3.84632882	    -12.38457710	     22.08267588	     24.63099575	    -15.30935258	      4.03335356	    -11.84892557	     -4.16946563	     -1.78619984	      5.33547949	      0.00000000	     -0.00743105	      0.00000000	     -0.77610790	    -11.94712794	      8.41620866	     20.66446868
      0.05416667	     -0.83447328	    -11.38917056	    -13.06436945	     -0.78124168	      0.97959618	      0.32863306	    -23.47063669	      9.67718554	     15.44532105	    -14.94759287	      3.72333063	    -12.36279384	     22.09643805	     24.40268018	    -15.18602386	      4.04312908	    -11.92009005	     -4.16436190	     -1.77052927	      5.40370077	      0.00000000	     -0.00826646	      0.00000000	     -0.82803430	    -11.71185557	      8.46992361	     20.65723078
      0.05833333	     -0.82848388	    -10.90808418	    -13.30738181	     -0.77442390	      0.97935884	      0.32836928	    -23.11105094	      8.95768212	     14.66732984	    -15.84679244	      2.07807537	    -11.92820229	     27.06304217	     24.10328821	    -14.77185053	      2.56306009	    -12.31189124	     -4.47311285	     -2.02337401	      6.48394118	      0.00000000	     -0.00863909	      0.00000000	     -1.14707065	    -11.47600455	      7.89038611	     20.69233454
      0.06250000	     -0.87171020	    -10.86451938	    -13.26711345	     -0.76814304	      0.97901340	      0.32771397	    -22.98988921	      8.88483054	     14.71138987	    -16.47984981	      1.64894124	    -11.93325936	     27.02517225	     23.87472119	    -14.64005393	      2.57336474	    -12.39168360	     -4.45882850	     -2.00012745	      6.51236417	      0.00000000	     -0.00938608	      0.00000000	     -1.38994062	    -11.32427829	      7.84306164	     20.60815185
      0.06666667	     -0.91075226	    -10.77354599	    -13.20822949	     -0.76184544	      0.97871425	      0.32704411	    -22.83438222	      8.77443038	     14.71551057	    -17.14645626	      1.16178025	    -11.93371662	     26.99037166	     23.65500123	    -14.46232080	      2.55908865	    -12.47405129	     -4.43961120	     -1.95034459	      6.56624393	      0.00000000	     -0.01006933	      0.00000000	     -1.58406024	    -11.17462126	      7.75321746	     20.51835018
      0.07083333	     -0.93318982	    -10.69982369	    -13.10876696	     -0.75540011	      0.97850977	      0.32636315	    -22.74013304	      8.69819851	     14.76603513	    -17.73823138	      0.78266136	    -11.92164148	     26.96826809	     23.41583255	    -14.28558247	      2.56955745	    -12.57114913	     -4.42470395	     -1.93105485	      6.62690714	      0.00000000	     -0.01078057	      0.00000000	     -1.71985112	    -10.98130541	      7.65910248	     20.44536481
